<?xml version="1.0" encoding="utf-8"?>
<!-- Generator: Adobe Illustrator 19.1.0, SVG Export Plug-In . SVG Version: 6.00 Build 0)  -->
<!DOCTYPE svg PUBLIC "-//W3C//DTD SVG 1.1//EN" "http://www.w3.org/Graphics/SVG/1.1/DTD/svg11.dtd">
<svg version="1.1" id="Layer_1" xmlns="http://www.w3.org/2000/svg" xmlns:xlink="http://www.w3.org/1999/xlink" x="0px" y="0px"
	 viewBox="0 0 120 120" enable-background="new 0 0 120 120" xml:space="preserve">
<path fill="#204056" d="M60,120L60,120C26.9,120,0,93.1,0,60v0C0,26.9,26.9,0,60,0h0c33.1,0,60,26.9,60,60v0
	C120,93.1,93.1,120,60,120z"/>
<g>
	<path fill="#FFFFFF" d="M71.8,25H48.2l-17.5,6v20.2l17.5,6h23.6l17.5-6V31L71.8,25z M48.9,29.2l22.2,0l9.6,3.3l-9.6,3.3l-22.2,0
		l-9.6-3.3L48.9,29.2z M85.1,48.1L85.1,48.1l-14,4.8l-22.2,0l-14-4.8V35.4l0.1,0l13.2,4.5h23.6l13.3-4.5V48.1z"/>
	<polygon fill="#FFFFFF" points="85.1,67.4 85,67.4 71.1,72.2 48.9,72.2 34.9,67.4 34.9,56.9 30.7,55.5 30.7,70.4 48.2,76.4 
		71.8,76.4 89.3,70.4 89.3,55.5 85.1,56.9 	"/>
	<polygon fill="#FFFFFF" points="85.1,86 85,86 71.1,90.8 48.9,90.8 34.9,86 34.9,75.5 30.7,74.1 30.7,89 48.2,95 71.8,95 89.3,89 
		89.3,74.1 85.1,75.5 	"/>
</g>
</svg>
